# xmcd
#
# Track frame offsets:
#	150
#	13473
#	32900
#	49950
#	69693
#	86850
#	104547
#	121070
#	137816
#	151449
#	169077
#
# Disc length: 2412 seconds
#
# Revision: 1
# Processed by: cddbd v1.5.2PL0 Copyright (c) Steve Scherf et al.
# Submitted via: audiograbber 1.83.01
#
DISCID=9f096a0b
DTITLE=Trisha Yearwood - Icon 2 ( Disc 2 )
DYEAR=2014
DGENRE=Country
TTITLE0=Powerful Thing
TTITLE1=Love Alone
TTITLE2=I Fall To Pieces ( with Aaron Neville )
TTITLE3=I'll Still Love You More
TTITLE4=The Woman Bsfore Me
TTITLE5=Real Live Woman
TTITLE6=Melancholy Blue
TTITLE7=Belive Me Baby ( I Lied )
TTITLE8=I Wanna Go Too Far
TTITLE9=Down On My Knees
TTITLE10=That's What I Like About You
EXTD=
EXTT0=
EXTT1=
EXTT2=
EXTT3=
EXTT4=
EXTT5=
EXTT6=
EXTT7=
EXTT8=
EXTT9=
EXTT10=
PLAYORDER=
